<?xml version="1.0" standalone="no"?>
<!DOCTYPE svg PUBLIC "-//W3C//DTD SVG 20010904//EN"
 "http://www.w3.org/TR/2001/REC-SVG-20010904/DTD/svg10.dtd">
<svg version="1.0" xmlns="http://www.w3.org/2000/svg"
 width="100%" height="100%" viewBox="0 0 938.000000 938.000000"
 preserveAspectRatio="xMidYMid meet">
<metadata>
Created by potrace 1.16, written by Peter Selinger 2001-2019
</metadata>
<g transform="translate(0.000000,938.000000) scale(0.100000,-0.100000)"
fill="#000000" stroke="none">
<path d="M4370 9043 c-113 -9 -447 -56 -560 -80 -1348 -276 -2500 -1195 -3085
-2461 -218 -471 -333 -921 -381 -1482 -27 -319 -8 -747 47 -1075 122 -728 455
-1443 943 -2029 249 -298 413 -457 699 -679 467 -362 1030 -636 1592 -776 577
-143 1226 -169 1810 -70 408 69 792 198 1210 406 390 194 684 399 1015 705
724 670 1213 1601 1344 2558 101 739 27 1469 -215 2117 -333 894 -903 1617
-1684 2138 -751 501 -1563 741 -2485 733 -113 -1 -225 -3 -250 -5z m740 -319
c277 -31 570 -95 832 -180 645 -209 1161 -525 1638 -1003 450 -451 802 -1045
985 -1666 108 -364 156 -650 176 -1035 12 -218 11 -233 -15 -490 -40 -387 -85
-615 -183 -915 -155 -479 -392 -917 -709 -1315 -132 -164 -420 -455 -568 -573
-543 -432 -1179 -722 -1841 -841 -154 -28 -452 -61 -642 -72 l-123 -7 0 1811
0 1812 29 0 c29 0 31 -3 56 -87 64 -216 90 -287 144 -399 262 -539 706 -848
1386 -966 114 -20 165 -23 415 -23 309 0 347 4 598 66 320 78 733 229 800 291
l22 21 0 804 0 803 -755 0 -755 0 0 -200 0 -200 525 0 525 0 -2 -512 -3 -511
-85 -29 c-129 -43 -350 -95 -490 -115 -181 -26 -637 -26 -765 0 -271 55 -522
187 -713 376 -141 139 -241 304 -315 517 -83 238 -114 466 -103 764 10 290 36
444 107 647 158 450 546 779 1008 857 129 22 564 22 706 1 335 -51 632 -165
915 -352 145 -96 173 -113 189 -113 8 0 11 83 11 261 0 308 15 274 -160 350
-291 125 -647 226 -920 259 -46 5 -195 10 -330 10 -275 0 -431 -17 -637 -70
-410 -106 -762 -337 -1004 -659 -147 -196 -272 -480 -324 -733 -4 -23 -11 -28
-34 -28 l-28 0 -6 137 c-4 75 -7 856 -7 1736 l0 1600 158 -7 c86 -4 218 -14
292 -22z m-903 -481 c-4 -256 -7 -1179 -7 -2050 l0 -1583 -27 0 c-21 0 -33 8
-47 33 -10 17 -108 194 -218 392 -110 198 -258 461 -328 585 -70 124 -173 311
-230 415 -56 105 -133 242 -170 305 -37 63 -82 144 -100 180 -18 36 -180 331
-360 655 -379 683 -412 747 -408 783 2 22 24 40 118 100 445 281 730 413 1128
522 178 49 559 129 616 129 l39 1 -6 -467z m-2218 -760 c35 -65 157 -280 271
-478 114 -198 221 -388 238 -422 18 -34 57 -104 88 -155 32 -51 101 -172 154
-268 53 -96 126 -227 162 -290 36 -63 146 -256 244 -429 99 -173 194 -339 212
-370 30 -51 33 -62 29 -121 -3 -62 -10 -78 -139 -320 -133 -250 -314 -595
-1058 -2017 l-372 -713 -36 0 c-32 0 -45 9 -112 78 -126 129 -324 399 -467
637 -182 302 -350 713 -442 1080 -100 401 -147 855 -122 1179 66 843 281 1487
709 2116 174 256 397 520 491 581 73 47 78 44 150 -88z m1941 -3285 c63 -116
141 -255 173 -307 31 -53 64 -118 73 -146 22 -72 23 -154 28 -1693 l5 -1382
-27 0 c-54 0 -368 60 -515 99 -297 79 -556 175 -808 302 -151 75 -506 293
-574 352 -37 32 -40 38 -40 88 0 50 10 72 121 279 67 124 183 344 259 490 76
146 264 501 418 790 154 289 331 622 392 740 292 562 315 600 354 600 24 0 37
-20 141 -212z"/>
</g>
</svg>
